<svg width="57" height="25" viewBox="0 0 57 25" fill="none" xmlns="http://www.w3.org/2000/svg">
    <path d="M1.00646 20.8762C0.385815 21.4249 0.327504 22.3729 0.87622 22.9935C1.42494 23.6142 2.37289 23.6725 2.99354 23.1238L1.00646 20.8762ZM19.1377 6.84848L20.2179 5.80771L19.2208 4.77286L18.1442 5.7247L19.1377 6.84848ZM33.7365 22L32.6563 23.0408L33.6847 24.108L34.7642 23.0926L33.7365 22ZM56.0277 3.09263C56.6311 2.52504 56.6602 1.57574 56.0926 0.972299C55.525 0.368858 54.5757 0.339791 53.9723 0.907375L56.0277 3.09263ZM2.99354 23.1238L20.1313 7.97227L18.1442 5.7247L1.00646 20.8762L2.99354 23.1238ZM18.0575 7.88926L32.6563 23.0408L34.8167 20.9592L20.2179 5.80771L18.0575 7.88926ZM34.7642 23.0926L56.0277 3.09263L53.9723 0.907375L32.7088 20.9074L34.7642 23.0926Z" fill="white"/>
</svg>
