<svg width="49" height="47" viewBox="0 0 49 47" fill="none" xmlns="http://www.w3.org/2000/svg">
    <path d="M22.6012 3.74153C23.2062 1.91218 25.7938 1.91218 26.3988 3.74153L30.4449 15.9755C30.7157 16.7945 31.4812 17.3475 32.3437 17.3475H45.3607C47.3067 17.3475 48.1065 19.8448 46.5226 20.9754L36.053 28.4486C35.3396 28.9578 35.0408 29.8722 35.3161 30.7044L39.3294 42.8396C39.9368 44.676 37.843 46.2192 36.2686 45.0955L25.6619 37.5244C24.9668 37.0282 24.0332 37.0282 23.3381 37.5244L12.7314 45.0955C11.157 46.2192 9.06322 44.676 9.67056 42.8396L13.6839 30.7044C13.9592 29.8722 13.6604 28.9578 12.947 28.4486L2.47735 20.9754C0.893456 19.8448 1.69329 17.3475 3.6393 17.3475H16.6563C17.5188 17.3475 18.2843 16.7945 18.5551 15.9755L22.6012 3.74153Z" stroke="white" stroke-width="3"/>
</svg>
