<svg width="64" height="29" viewBox="0 0 64 29" fill="none" xmlns="http://www.w3.org/2000/svg">
    <path d="M44.0125 14.5C44.0125 20.7562 38.7365 26 32.0125 26C25.2884 26 20.0125 20.7562 20.0125 14.5C20.0125 8.24378 25.2884 3 32.0125 3C38.7365 3 44.0125 8.24378 44.0125 14.5Z" stroke="#2F3035" stroke-width="6"/>
    <path d="M52.1765 9.78149C54.8728 11.4961 57.0593 13.2126 58.5704 14.5C57.0593 15.7874 54.8728 17.5039 52.1765 19.2185C46.7121 22.6934 39.4069 26 31.5125 26C23.6099 26 16.1754 22.6872 10.6484 19.2106C7.97615 17.5297 5.81621 15.852 4.34847 14.5906C4.37691 14.5662 4.40561 14.5417 4.43457 14.517C5.94635 13.2278 8.14023 11.5037 10.8484 9.78149C16.3128 6.30656 23.618 3 31.5125 3C39.4069 3 46.7121 6.30656 52.1765 9.78149Z" stroke="#2F3035" stroke-width="6"/>
</svg>
