<svg width="34" height="34" viewBox="0 0 34 34" fill="none" xmlns="http://www.w3.org/2000/svg">
    <circle cx="17" cy="17" r="14.5" stroke="black" stroke-width="5"/>
    <path d="M14.7678 10.2322C13.7915 9.25592 12.2085 9.25592 11.2322 10.2322C10.2559 11.2085 10.2559 12.7915 11.2322 13.7678L14.7678 10.2322ZM20.2322 22.7678C21.2085 23.7441 22.7915 23.7441 23.7678 22.7678C24.7441 21.7915 24.7441 20.2085 23.7678 19.2322L20.2322 22.7678ZM11.2322 13.7678L20.2322 22.7678L23.7678 19.2322L14.7678 10.2322L11.2322 13.7678Z" fill="#2F3035"/>
    <path d="M23.7678 13.7678C24.7441 12.7915 24.7441 11.2085 23.7678 10.2322C22.7915 9.25592 21.2085 9.25592 20.2322 10.2322L23.7678 13.7678ZM11.2322 19.2322C10.2559 20.2085 10.2559 21.7915 11.2322 22.7678C12.2085 23.7441 13.7915 23.7441 14.7678 22.7678L11.2322 19.2322ZM20.2322 10.2322L11.2322 19.2322L14.7678 22.7678L23.7678 13.7678L20.2322 10.2322Z" fill="#2F3035"/>
</svg>
